<svg width="46" height="46" viewBox="0 0 46 46" fill="none" xmlns="http://www.w3.org/2000/svg">
<path d="M13.7647 22.7922C13.7647 17.7571 17.8731 13.6753 22.9411 13.6753C28.0092 13.6753 32.1176 17.7571 32.1176 22.7922C32.1176 27.8273 28.0092 31.9091 22.9411 31.9091C17.8731 31.9091 13.7647 27.8273 13.7647 22.7922Z" fill="#0165FC"/>
<path d="M19.8065 5.13013C19.3376 2.48813 16.7688 0.677187 14.2688 1.69136C10.7787 3.10728 7.66906 5.36618 5.23913 8.29469C1.76477 12.4822 -0.0917842 17.764 0.00349903 23.19C0.0987804 28.6161 2.13978 33.8303 5.75928 37.8949C8.29046 40.7373 11.4776 42.887 15.0153 44.1812C17.5494 45.1081 20.053 43.209 20.4288 40.5524C20.8046 37.8959 18.8582 35.5106 16.5029 34.1983C15.2263 33.4871 14.0681 32.5637 13.083 31.4575C11.0062 29.1254 9.83532 26.1337 9.78057 23.0206C9.72597 19.9073 10.791 16.8769 12.7846 14.4743C13.7303 13.3345 14.8553 12.3716 16.1062 11.6165C18.4139 10.2234 20.2754 7.77213 19.8065 5.13013Z" fill="#0165FC"/>
<path d="M20.0743 45.4082C21.0135 45.5245 21.9703 45.5844 22.9411 45.5844C35.6112 45.5844 45.8823 35.38 45.8823 22.7922C45.8823 10.2044 35.6112 -4.48965e-07 22.9411 -1.00279e-06C21.6951 -1.05726e-06 20.4724 0.0986891 19.2802 0.288639C20.7227 1.33553 21.7525 2.96946 22.0657 4.73433C22.4046 6.64385 21.9385 8.3793 21.0672 9.84664C21.6792 9.75996 22.3049 9.7151 22.9411 9.7151C30.2106 9.7151 36.1037 15.57 36.1037 22.7922C36.1037 30.0144 30.2106 35.8693 22.9411 35.8693C22.4618 35.8693 21.9885 35.8438 21.5225 35.7942C22.4452 37.2306 22.9723 38.9491 22.7006 40.8696C22.4496 42.6438 21.4784 44.3118 20.0743 45.4082Z" fill="#FFEFEF"/>
</svg>
